<svg xmlns="http://www.w3.org/2000/svg" width="37.5" height="60" viewBox="0 0 37.5 60">
  <path id="Path_7" data-name="Path 7" d="M14,0A5.022,5.022,0,0,0,9,5V55a5.022,5.022,0,0,0,5,5H41.5a5.022,5.022,0,0,0,5-5V5a5.022,5.022,0,0,0-5-5Zm0,2.5H41.5A2.5,2.5,0,0,1,44,5v5H11.5V5A2.5,2.5,0,0,1,14,2.5ZM25.25,5a1.25,1.25,0,0,0,0,2.5h5a1.25,1.25,0,0,0,0-2.5ZM11.5,12.5H44v35H11.5Zm16.25,5a5,5,0,0,0-5,5H21.5a5,5,0,1,0,0,10H34a5,5,0,1,0,0-10H32.75a5,5,0,0,0-5-5Zm0,2.5a2.5,2.5,0,0,1,2.5,2.5,2.5,2.5,0,0,0,2.5,2.5H34a2.5,2.5,0,1,1,0,5H21.5a2.5,2.5,0,1,1,0-5h1.25a2.5,2.5,0,0,0,2.5-2.5,2.5,2.5,0,0,1,2.5-2.5Zm0,15a1.247,1.247,0,0,0-1.25,1.25V37.5H25.25a1.25,1.25,0,0,0,0,2.5H26.5v1.25a1.25,1.25,0,0,0,2.5,0V40h1.25a1.25,1.25,0,0,0,0-2.5H29V36.25A1.247,1.247,0,0,0,27.75,35ZM11.5,50H44v5a2.5,2.5,0,0,1-2.5,2.5H14A2.5,2.5,0,0,1,11.5,55Zm16.25,2.5A1.25,1.25,0,1,0,29,53.75,1.25,1.25,0,0,0,27.75,52.5Z" transform="translate(-9)" fill="#0353b4" fill-rule="evenodd"/>
</svg>
