<svg xmlns="http://www.w3.org/2000/svg" width="87.276" height="60" viewBox="0 0 87.276 60">
  <g id="Group_4" data-name="Group 4" transform="translate(-15.99 -91)">
    <path id="Path_9" data-name="Path 9" d="M103.073,106.551,95.8,92.005A1.818,1.818,0,0,0,94.174,91H25.083a1.818,1.818,0,0,0-1.626,1.005l-7.273,14.545a1.819,1.819,0,0,0,1.626,2.631h5.455v38.182H19.628a1.818,1.818,0,0,0,0,3.636h80a1.818,1.818,0,1,0,0-3.636H95.992V109.182h5.455A1.819,1.819,0,0,0,103.073,106.551ZM26.206,94.636h30.48l-5.455,10.909H20.752Zm.695,14.545H52.355a1.818,1.818,0,0,0,1.626-1.005l3.828-7.657v46.843H45.083v-20a1.818,1.818,0,0,0-3.636,0v20H37.81v-20a1.818,1.818,0,0,0-3.636,0v20H26.9Zm43.636,38.182v-20H83.265v20Zm21.818,0H86.9V125.545a1.818,1.818,0,0,0-1.818-1.818H68.719a1.818,1.818,0,0,0-1.818,1.818v21.818H61.446V100.52l3.828,7.657a1.818,1.818,0,0,0,1.626,1.005H92.355ZM68.025,105.545,62.57,94.636H93.05L98.5,105.545Z" transform="translate(0)" fill="#0353b4"/>
  </g>
</svg>
