<svg xmlns="http://www.w3.org/2000/svg" width="60.001" height="60" viewBox="0 0 60.001 60">
  <path id="Path_8" data-name="Path 8" d="M63.016,26.893a6.7,6.7,0,0,0-11.474,5.715l-6.875,1.809a9.788,9.788,0,0,0-8.177-7.565V18.369a6.816,6.816,0,1,0-1.658.162v8.193A9.863,9.863,0,0,0,25.308,34.5l-6.859-1.805a6.811,6.811,0,0,0,.1-1.012,6.755,6.755,0,1,0-.524,2.616L25.1,36.159a9.868,9.868,0,0,0,4.442,8.819l-5.167,7.013a8.751,8.751,0,1,0,1.43.857l5.223-7.089a9.929,9.929,0,0,0,8.9-.5l5.719,7.762c-.169.139-.35.26-.507.417a7.048,7.048,0,1,0,1.905-1.316l-5.758-7.814c.249-.2.515-.378.749-.611a9.886,9.886,0,0,0,2.858-7.623l7.051-1.856a6.773,6.773,0,1,0,11.071-7.324ZM15.195,35.1a4.957,4.957,0,0,1-6.843,0,4.839,4.839,0,1,1,6.843,0ZM26.566,58.226a4.811,4.811,0,0,1-1.417,3.422,4.957,4.957,0,0,1-6.843,0,4.839,4.839,0,1,1,8.26-3.422ZM31.578,15.2a4.839,4.839,0,1,1,6.843,0A4.956,4.956,0,0,1,31.578,15.2ZM49.931,53.387a4.839,4.839,0,0,1,3.421,8.261,4.957,4.957,0,0,1-6.843,0,4.839,4.839,0,0,1,3.422-8.261ZM61.647,35.1a4.957,4.957,0,0,1-6.843,0,4.839,4.839,0,1,1,6.843,0Z" transform="translate(-4.999 -5)" fill="#0353b4"/>
</svg>
